<?xml version="1.0" encoding="UTF-8"?>
<svg xmlns="http://www.w3.org/2000/svg" viewBox="0 0 1500 500" width="1500" height="500">
  <defs>
    <!-- Soft clip for clean edges -->
    <clipPath id="banner-clip">
      <rect width="1500" height="500" rx="0"/>
    </clipPath>
  </defs>
  <g clip-path="url(#banner-clip)">
    <!-- Background -->
    <rect width="1500" height="500" fill="#F9F4F5"/>
    <ellipse cx="820" cy="260" rx="260" ry="200" fill="#FFB6C6" opacity="0.7"/>
    <rect x="1050" y="30" width="320" height="160" rx="70" fill="#FFCE02" opacity="0.8" transform="rotate(8 1210.0 110.0)"/>
    <ellipse cx="180" cy="320" rx="200" ry="160" fill="#00A6DB" opacity="0.5"/>
    <circle cx="250" cy="200" r="90" fill="#007C35" opacity="0.85"/>
    <circle cx="310" cy="135" r="18" fill="#F95838"/>
    <ellipse cx="530" cy="280" rx="100" ry="75" fill="#FFB6C6" opacity="0.9"/>
    <g transform="rotate(-30 490 250)" opacity="0.8">
      <mask id="crescent-490-250--30">
        <rect x="430" y="190" width="120" height="120" fill="white"/>
        <circle cx="507.5" cy="250" r="35.0" fill="black"/>
      </mask>
      <circle cx="490" cy="250" r="50" fill="#00A6DB" mask="url(#crescent-490-250--30)"/>
    </g>
    <rect x="700" y="150" width="200" height="220" rx="60" fill="#007C35" opacity="0.75"/>
    <circle cx="870" cy="200" r="70" fill="#FFCE02" opacity="0.85"/>
    <circle cx="780" cy="170" r="22" fill="#F95838"/>
    <polygon points="900.0,268.4 860.0,337.7 940.0,337.7" fill="#00A6DB" opacity="0.75" transform="rotate(90 900 310)"/>
    <ellipse cx="1150" cy="300" rx="110" ry="80" fill="#FFCE02" opacity="0.8"/>
    <polygon points="1200.0,231.4 1172.5,279.1 1227.5,279.1" fill="#007C35" opacity="0.9" transform="rotate(15 1200 260)"/>
    <circle cx="1350" cy="180" r="75" fill="#FFB6C6" opacity="0.8"/>
    <circle cx="1380" cy="230" r="30" fill="#00A6DB" opacity="0.7"/>
    <circle cx="1310" cy="150" r="20" fill="#F95838" opacity="0.9"/>
    <g transform="rotate(45 400 180)" opacity="0.6">
      <mask id="crescent-400-180-45">
        <rect x="345" y="125" width="110" height="110" fill="white"/>
        <circle cx="415.75" cy="180" r="31.499999999999996" fill="black"/>
      </mask>
      <circle cx="400" cy="180" r="45" fill="#007C35" mask="url(#crescent-400-180-45)"/>
    </g>
    <g transform="rotate(-20 1020 250)" opacity="0.5">
      <mask id="crescent-1020-250--20">
        <rect x="955" y="185" width="130" height="130" fill="white"/>
        <circle cx="1039.25" cy="250" r="38.5" fill="black"/>
      </mask>
      <circle cx="1020" cy="250" r="55" fill="#F95838" mask="url(#crescent-1020-250--20)"/>
    </g>
    <g transform="rotate(120 1280 350)" opacity="0.5">
      <mask id="crescent-1280-350-120">
        <rect x="1230" y="300" width="100" height="100" fill="white"/>
        <circle cx="1294.0" cy="350" r="28.0" fill="black"/>
      </mask>
      <circle cx="1280" cy="350" r="40" fill="#007C35" mask="url(#crescent-1280-350-120)"/>
    </g>
    <circle cx="479.8566996144709" cy="153.75161328340005" r="2.8250879551073576" fill="#007C35"/>
    <circle cx="354.88448213128595" cy="165.37427642572612" r="4.222003234003028" fill="#FFB6C6"/>
    <circle cx="341.734708157354" cy="213.28827295279058" r="2.089391658314211" fill="#007C35"/>
    <circle cx="378.1652233476849" cy="240.30280935749704" r="3.683735188815839" fill="rgba(0,0,0,0.08)"/>
    <circle cx="482.47110944488077" cy="231.7412220904825" r="2.66132186612209" fill="#FFB6C6"/>
    <circle cx="389.5476770576657" cy="280.39504811894005" r="4.276422101389302" fill="#007C35"/>
    <circle cx="494.5348487470567" cy="201.0375774776988" r="2.4664384994353448" fill="rgba(0,0,0,0.05)"/>
    <circle cx="404.1486362781567" cy="163.91187650702219" r="2.2901491305003923" fill="rgba(0,0,0,0.05)"/>
    <circle cx="405.98893061974275" cy="189.67813008330197" r="2.1303513287692915" fill="#FFCE02"/>
    <circle cx="454.0570228636752" cy="295.96736459690555" r="3.1356031316250603" fill="#FFB6C6"/>
    <circle cx="393.29457035177325" cy="244.2959699241665" r="4.65635524381042" fill="#00A6DB"/>
    <circle cx="464.3380363141905" cy="255.68577543223853" r="2.1374731509669864" fill="#007C35"/>
    <circle cx="513.267085197173" cy="297.78322809911367" r="4.565953163045441" fill="rgba(0,0,0,0.05)"/>
    <circle cx="345.2503573524323" cy="191.6960404665138" r="3.9070533327932004" fill="#00A6DB"/>
    <circle cx="360.6635242890212" cy="203.29060503412822" r="4.01052552313308" fill="rgba(0,0,0,0.08)"/>
    <circle cx="554.1636469281235" cy="247.205307786989" r="3.8273930170009645" fill="#007C35"/>
    <circle cx="453.534969257427" cy="186.72163877271393" r="3.386780635553347" fill="#00A6DB"/>
    <circle cx="567.3808376591488" cy="245.99996397811393" r="3.6708492313239387" fill="rgba(0,0,0,0.08)"/>
    <circle cx="401.07068360383045" cy="265.24703663885583" r="2.1678138426478517" fill="rgba(0,0,0,0.05)"/>
    <circle cx="328.02506097600946" cy="197.31795720886228" r="2.8032226279271084" fill="#007C35"/>
    <circle cx="548.2840310463862" cy="235.07700772177535" r="4.153742812156928" fill="#007C35"/>
    <circle cx="483.85966632372003" cy="209.34478515909964" r="4.743642769221631" fill="#FFCE02"/>
    <circle cx="355.71789761051565" cy="170.94454792882595" r="4.23496694627482" fill="#FFB6C6"/>
    <circle cx="385.6854021307338" cy="237.6878985335311" r="4.69346865080743" fill="#FFCE02"/>
    <circle cx="410.49911092840273" cy="299.59886669837414" r="2.414995234672568" fill="#FFCE02"/>
    <circle cx="942.7273530434485" cy="207.06745631371018" r="2.3289473910519773" fill="rgba(0,0,0,0.08)"/>
    <circle cx="959.9955004306125" cy="302.07218202444903" r="3.7892270921959215" fill="#FFCE02"/>
    <circle cx="1015.4048216266342" cy="349.4182070360145" r="3.587343035297411" fill="#FFB6C6"/>
    <circle cx="1135.1949255586246" cy="201.72215329142296" r="4.162165458080584" fill="rgba(0,0,0,0.08)"/>
    <circle cx="1141.1971125322773" cy="312.6316699387414" r="4.305796197972338" fill="#00A6DB"/>
    <circle cx="947.8880433989691" cy="265.21478760036575" r="3.3611711189876194" fill="rgba(0,0,0,0.08)"/>
    <circle cx="1138.9632350945485" cy="239.50835761266362" r="3.501758339150895" fill="#007C35"/>
    <circle cx="1046.9204186510813" cy="215.96162341965575" r="3.875900580699253" fill="rgba(0,0,0,0.05)"/>
    <circle cx="1079.7373737165012" cy="291.3455317157258" r="2.4585178056489045" fill="rgba(0,0,0,0.05)"/>
    <circle cx="960.3872589382884" cy="343.02496214802545" r="4.767302241854824" fill="#F95838"/>
    <circle cx="1069.7361461150572" cy="273.29085620434216" r="2.335603175962685" fill="#00A6DB"/>
    <circle cx="1139.6804694557961" cy="324.7498294041769" r="2.9225423762079843" fill="#F95838"/>
    <circle cx="980.2178981118083" cy="285.1035415533365" r="2.2362711448740984" fill="rgba(0,0,0,0.08)"/>
    <circle cx="1041.4976158291533" cy="210.38187777025755" r="4.281806495771695" fill="rgba(0,0,0,0.05)"/>
    <circle cx="951.4401278801104" cy="298.96262341210513" r="4.840546039114972" fill="#007C35"/>
    <circle cx="986.2641572350147" cy="330.86495616278864" r="3.2694138206026606" fill="#007C35"/>
    <circle cx="1152.2283732505443" cy="313.2897794953708" r="4.069602896298864" fill="rgba(0,0,0,0.08)"/>
    <circle cx="997.9290728252238" cy="349.27240349913416" r="3.9496341729183606" fill="#FFCE02"/>
    <circle cx="1144.9035211607363" cy="267.72292120866945" r="2.7437168409980237" fill="#F95838"/>
    <circle cx="1004.5213905368638" cy="288.246307768585" r="2.690344197789731" fill="#007C35"/>
    <circle cx="921.7977097462734" cy="306.1761419822681" r="2.17662130062897" fill="#F95838"/>
    <circle cx="1146.355003251532" cy="328.94531003806196" r="2.2125720496659604" fill="#007C35"/>
    <circle cx="989.6193159911368" cy="272.8121748725736" r="3.617701794184264" fill="rgba(0,0,0,0.08)"/>
    <circle cx="1153.8785601451677" cy="285.6564639987927" r="3.4180130789353824" fill="rgba(0,0,0,0.05)"/>
    <circle cx="1038.2432357361483" cy="261.0589942228905" r="2.2829773894756467" fill="rgba(0,0,0,0.08)"/>
    <circle cx="653.4716553689285" cy="216.37459412876515" r="2.6675616700916875" fill="rgba(0,0,0,0.08)"/>
    <circle cx="125.83966212503871" cy="317.5204148369483" r="3.115449378237461" fill="#F95838"/>
    <circle cx="613.6697949431763" cy="179.2931463737838" r="3.6541813408819777" fill="#007C35"/>
    <circle cx="318.22610099831564" cy="265.9657317205515" r="1.8504557427369361" fill="#007C35"/>
    <circle cx="439.96320253371664" cy="139.9148370681242" r="3.808163998190032" fill="#FFCE02"/>
    <circle cx="1181.2311426243837" cy="406.625432686084" r="1.7447718205040008" fill="rgba(0,0,0,0.08)"/>
    <circle cx="1448.9954557778171" cy="397.85213743517886" r="3.9224906432118782" fill="rgba(0,0,0,0.05)"/>
    <circle cx="1238.1740281800276" cy="103.17688866572216" r="2.714102813626796" fill="#007C35"/>
    <circle cx="1260.5105516423016" cy="427.0748608246414" r="1.9115928035038172" fill="#F95838"/>
    <circle cx="1429.4323812916164" cy="146.68934559574686" r="3.4601765048714235" fill="#FFCE02"/>
    <circle cx="449.3489205256884" cy="336.5002615840715" r="3.326263293538665" fill="rgba(0,0,0,0.05)"/>
    <circle cx="828.0756527678654" cy="346.0996411303834" r="1.8869920631851604" fill="#00A6DB"/>
    <circle cx="354.7812577798449" cy="55.73264848321173" r="3.3393429469726086" fill="#F95838"/>
    <circle cx="1097.1657845306897" cy="55.15272007929255" r="2.9604439861474283" fill="#FFB6C6"/>
    <circle cx="1337.1419831649052" cy="263.6954995190382" r="1.6421989493217113" fill="#FFB6C6"/>
    <circle cx="162.15605133682163" cy="111.76298283151822" r="2.987587766125069" fill="rgba(0,0,0,0.08)"/>
    <circle cx="1256.5468827581813" cy="207.66124258004209" r="3.8539903180727233" fill="#FFB6C6"/>
    <circle cx="394.7014869040748" cy="291.58842755471414" r="3.0484537758302577" fill="#FFCE02"/>
    <circle cx="970.3224302615315" cy="278.6998464913994" r="2.290924614941818" fill="#00A6DB"/>
    <circle cx="335.962879192951" cy="345.1243923473425" r="2.096714881539615" fill="#FFCE02"/>
    <circle cx="233.22959497843902" cy="314.02034708856576" r="2.64306143142613" fill="rgba(0,0,0,0.05)"/>
    <circle cx="1360.0280024227527" cy="34.09880102906841" r="3.052898138732732" fill="#FFB6C6"/>
    <circle cx="1444.5350269971323" cy="62.23471728383852" r="2.032885780667601" fill="#00A6DB"/>
    <circle cx="235.4391985130542" cy="183.56388738438662" r="1.6719782851500482" fill="#007C35"/>
    <circle cx="567.3379242344375" cy="99.40860623718207" r="3.5843623865995173" fill="rgba(0,0,0,0.08)"/>
    <circle cx="473.52400017044585" cy="462.8954565106522" r="3.5177498581628557" fill="#FFB6C6"/>
    <circle cx="60.95235001302113" cy="389.5258194508031" r="2.2484468804999445" fill="rgba(0,0,0,0.08)"/>
    <circle cx="195.02110268549612" cy="416.3758645883805" r="2.1611648037178193" fill="#F95838"/>
    <circle cx="1089.3833575733981" cy="98.3970803009958" r="2.2043906786447356" fill="#007C35"/>
    <circle cx="1054.6570619943172" cy="119.5828174240793" r="3.085594897212699" fill="#00A6DB"/>
    <circle cx="757.5726813371821" cy="140.4933509107534" r="3.77039761554643" fill="#F95838"/>
    <circle cx="179.2178547978268" cy="216.3733399280396" r="2.191700559930629" fill="#F95838"/>
    <circle cx="516.9791540471234" cy="87.560650708749" r="3.94949488457209" fill="#007C35"/>
    <circle cx="1087.723271687103" cy="272.7393852956121" r="2.5692172974516985" fill="#F95838"/>
    <circle cx="206.62343282506902" cy="445.8224131805212" r="3.227549059389691" fill="#007C35"/>
    <circle cx="813.8264048877313" cy="397.22180874984736" r="2.956273916224485" fill="#007C35"/>
    <circle cx="651.7013980330804" cy="48.404697594297446" r="2.41162878831814" fill="rgba(0,0,0,0.05)"/>
    <circle cx="1411.0747710241646" cy="47.55374636893599" r="2.3945230806260653" fill="rgba(0,0,0,0.08)"/>
    <circle cx="399.3416349120942" cy="75.22919353558568" r="3.4502906046786066" fill="rgba(0,0,0,0.05)"/>
    <circle cx="618.9283457649635" cy="303.09106446631364" r="1.8863833458305117" fill="#007C35"/>
    <circle cx="160" cy="380" r="8" fill="#FFCE02"/>
    <circle cx="450" cy="120" r="6" fill="#F95838"/>
    <circle cx="650" cy="400" r="10" fill="#00A6DB"/>
    <circle cx="950" cy="130" r="7" fill="#FFCE02"/>
    <circle cx="1100" cy="420" r="9" fill="#007C35"/>
    <circle cx="1400" cy="350" r="6" fill="#F95838"/>
    <circle cx="80" cy="100" r="5" fill="#FFB6C6"/>
    <circle cx="1450" cy="80" r="8" fill="#007C35"/>
    <!-- Forecast logo mark -->
    <path d="M 30 30 L 30 65 A 35 35 0 0 0 65 30 Z" fill="#FFB6C6" opacity="0.6"/>
    <polygon points="44.0,36.6 33.0,55.6 55.0,55.6" fill="#007C35" opacity="0.9" transform="rotate(225 44 48)"/>
  </g>
</svg>
